<?xml version="1.0" standalone="no"?><!DOCTYPE svg PUBLIC "-//W3C//DTD SVG 1.1//EN" "http://www.w3.org/Graphics/SVG/1.1/DTD/svg11.dtd"><svg t="1612436518102" class="icon" viewBox="0 0 1024 1024" version="1.1" xmlns="http://www.w3.org/2000/svg" p-id="2442" xmlns:xlink="http://www.w3.org/1999/xlink" width="200" height="200"><defs><style type="text/css"></style></defs><path d="M63.681087 516.285293c0 210.288698 144.593659 387.06044 340.109608 435.411104 8.963443 2.334559 18.979018-5.66029 18.685506-14.948855V740.533933c0-9.954615 5.899616-19.5096 16.818309-25.228593 11.097059-5.5474 8.380932-25.607902-3.738907-28.030515-56.790299-11.356705-105.233532-34.160427-139.233656-64.471315-33.930132-30.367333-53.245562-67.216792-53.245561-106.518217 0-27.359951 9.783022-53.611324 27.084499-77.566521a14.623733 14.623733 0 0 0 2.817728-8.365127v-142.999656l118.721594 63.536587c3.619244 1.971054 8.143864 2.291661 12.088231 0.889571 33.284403-9.868819 69.433946-14.890153 108.385412-14.890153 38.949208 0 75.096494 5.021334 108.385413 14.948856a15.36429 15.36429 0 0 0 12.146933-0.891829l118.662892-63.59529v142.91386a15.115932 15.115932 0 0 0 2.801922 8.42383c17.346633 23.925846 27.098046 50.235922 27.098047 77.564263 0 39.333033-19.268016 76.180235-53.200406 106.547568-34.043022 30.310888-82.5427 53.083-139.278811 64.471315-12.115324 2.363911-14.77049 22.42667-3.73665 27.971813 10.923209 5.723508 16.822825 15.240111 16.822825 25.23085v196.215867c-0.295771 9.28405 9.749156 17.281157 18.685505 14.948855C816.104564 903.343476 960.668872 726.517546 960.668872 516.285293c0-247.50392-201.00239-448.495021-448.492764-448.495021-247.50392 0-448.495021 200.991101-448.495021 448.495021z m448.495021-418.595052c231.37198 0 418.590537 187.236619 418.590537 418.595052 0 189.266376-126.779662 345.246091-298.995176 397.046664v-172.800282c0-11.970825-4.610416-22.60052-11.209949-31.769422 49.723403-13.666429 95.127645-35.156114 127.946942-64.471315 38.922115-34.600697 62.660564-78.952807 62.660564-128.005645 0-32.381285-11.794717-62.003545-29.897711-88.808078v-165.336015c0.085796-10.469392-13.314213-18.322-22.428928-13.068113l-137.34614 73.755365c-34.108498-9.254699-70.578648-15.840684-109.320139-15.840685-38.718913 0-75.277118 6.525025-109.322397 15.840685l-137.352913-73.726013c-9.094395-5.253887-22.510209 2.598721-22.424412 13.068113v165.336014c-18.116541 26.806791-29.899969 56.429051-29.899969 88.808079 0 49.025744 23.7678 93.375596 62.617665 127.978551 32.878 29.373903 78.32514 50.804886 127.962747 64.532275-6.572439 9.137293-11.185113 19.737637-11.185113 31.737813v50.482022c-32.584486 12.149191-54.015469 14.718561-67.275495 12.149191-14.291838-2.829016-21.999947-10.189425-30.787282-22.426671-17.70788-24.646082-35.083865-69.989364-92.546986-84.820814-19.547983-5.222278-26.161062 23.912299-7.475557 28.996852 45.081378 11.67957 53.972571 43.329329 75.638365 73.579256 10.889342 15.068519 26.497473 29.084905 49.578904 33.636619 19.227376 3.736649 42.498461 0.878282 72.863535-9.372104v90.600767c-172.156811-51.825409-298.995176-207.834475-298.995175-397.100851 0.009031-231.360691 187.24565-418.59731 418.604083-418.59731z" fill="#515151" p-id="2443"></path></svg>